solid OpenSCAD_Model
  facet normal -0 0 1
    outer loop
      vertex 0 9 4
      vertex 10 0 4
      vertex 10 9 4
    endloop
  endfacet
  facet normal 0 0 1
    outer loop
      vertex 10 0 4
      vertex 0 9 4
      vertex 0 0 4
    endloop
  endfacet
  facet normal 0 1 -0
    outer loop
      vertex 10 0 4
      vertex 0 0 20
      vertex 10 0 20
    endloop
  endfacet
  facet normal 0 1 0
    outer loop
      vertex 0 0 20
      vertex 10 0 4
      vertex 0 0 4
    endloop
  endfacet
  facet normal -1 0 0
    outer loop
      vertex 0 56 0
      vertex 0 12.1111 20
      vertex 0 56 20
    endloop
  endfacet
  facet normal -1 0 0
    outer loop
      vertex 0 56 0
      vertex 0 9 4
      vertex 0 12.1111 20
    endloop
  endfacet
  facet normal -1 0 0
    outer loop
      vertex 0 -4 0
      vertex 0 9 4
      vertex 0 56 0
    endloop
  endfacet
  facet normal -1 -0 0
    outer loop
      vertex 0 9 4
      vertex 0 -4 0
      vertex 0 0 4
    endloop
  endfacet
  facet normal -1 0 0
    outer loop
      vertex 0 -4 20
      vertex 0 0 4
      vertex 0 -4 0
    endloop
  endfacet
  facet normal -1 0 0
    outer loop
      vertex 0 0 4
      vertex 0 -4 20
      vertex 0 0 20
    endloop
  endfacet
  facet normal 0 -0.981616 0.190869
    outer loop
      vertex 0 9 4
      vertex 10 12.1111 20
      vertex 0 12.1111 20
    endloop
  endfacet
  facet normal 0 -0.981616 0.190869
    outer loop
      vertex 10 12.1111 20
      vertex 0 9 4
      vertex 10 9 4
    endloop
  endfacet
  facet normal -0 0 1
    outer loop
      vertex 0 56 20
      vertex 10 12.1111 20
      vertex 10 56 20
    endloop
  endfacet
  facet normal 0 0 1
    outer loop
      vertex 10 12.1111 20
      vertex 0 56 20
      vertex 0 12.1111 20
    endloop
  endfacet
  facet normal -0 0 1
    outer loop
      vertex 0 0 20
      vertex 10 -4 20
      vertex 10 0 20
    endloop
  endfacet
  facet normal 0 0 1
    outer loop
      vertex 10 -4 20
      vertex 0 0 20
      vertex 0 -4 20
    endloop
  endfacet
  facet normal 1 0 0
    outer loop
      vertex 10 0 20
      vertex 10 -4 20
      vertex 10 0 4
    endloop
  endfacet
  facet normal 1 -0 0
    outer loop
      vertex 10 12.1111 20
      vertex 10 56 0
      vertex 10 56 20
    endloop
  endfacet
  facet normal 1 -0 0
    outer loop
      vertex 10 9 4
      vertex 10 56 0
      vertex 10 12.1111 20
    endloop
  endfacet
  facet normal 1 0 0
    outer loop
      vertex 10 -4 0
      vertex 10 9 4
      vertex 10 0 4
    endloop
  endfacet
  facet normal 1 0 0
    outer loop
      vertex 10 9 4
      vertex 10 -4 0
      vertex 10 56 0
    endloop
  endfacet
  facet normal 1 0 0
    outer loop
      vertex 10 -4 0
      vertex 10 0 4
      vertex 10 -4 20
    endloop
  endfacet
  facet normal 0 1 -0
    outer loop
      vertex 10 56 0
      vertex 0 56 20
      vertex 10 56 20
    endloop
  endfacet
  facet normal 0 1 0
    outer loop
      vertex 0 56 20
      vertex 10 56 0
      vertex 0 56 0
    endloop
  endfacet
  facet normal 0 0 -1
    outer loop
      vertex 0 -4 0
      vertex 10 56 0
      vertex 10 -4 0
    endloop
  endfacet
  facet normal -0 0 -1
    outer loop
      vertex 10 56 0
      vertex 0 -4 0
      vertex 0 56 0
    endloop
  endfacet
  facet normal 0 -1 0
    outer loop
      vertex 0 -4 0
      vertex 10 -4 20
      vertex 0 -4 20
    endloop
  endfacet
  facet normal 0 -1 -0
    outer loop
      vertex 10 -4 20
      vertex 0 -4 0
      vertex 10 -4 0
    endloop
  endfacet
endsolid OpenSCAD_Model
