solid OpenSCAD_Model
  facet normal 0 0 -1
    outer loop
      vertex 180 -18.4 0
      vertex 91 2 0
      vertex 180 2 0
    endloop
  endfacet
  facet normal 0 0 -1
    outer loop
      vertex -2 -18.4 0
      vertex 91 2 0
      vertex 180 -18.4 0
    endloop
  endfacet
  facet normal 0 0 -1
    outer loop
      vertex -2 18.4 0
      vertex 91 2 0
      vertex -2 -18.4 0
    endloop
  endfacet
  facet normal 0 0 -1
    outer loop
      vertex 91 2 0
      vertex -2 18.4 0
      vertex 91 18.4 0
    endloop
  endfacet
  facet normal 0 0 1
    outer loop
      vertex 91 18.4 90
      vertex 89 16.4 90
      vertex 91 2 90
    endloop
  endfacet
  facet normal 0 0 1
    outer loop
      vertex 91 18.4 90
      vertex 0 16.4 90
      vertex 89 16.4 90
    endloop
  endfacet
  facet normal 0 0 1
    outer loop
      vertex 0 16.4 90
      vertex -2 18.4 90
      vertex 0 -16.4 90
    endloop
  endfacet
  facet normal -0 0 1
    outer loop
      vertex -2 18.4 90
      vertex 0 16.4 90
      vertex 91 18.4 90
    endloop
  endfacet
  facet normal 0 0 1
    outer loop
      vertex 180 2 90
      vertex 178 0 90
      vertex 180 -18.4 90
    endloop
  endfacet
  facet normal -0 0 1
    outer loop
      vertex 91 2 90
      vertex 178 0 90
      vertex 180 2 90
    endloop
  endfacet
  facet normal 0 0 1
    outer loop
      vertex 91 2 90
      vertex 89 0 90
      vertex 178 0 90
    endloop
  endfacet
  facet normal 0 0 1
    outer loop
      vertex 89 0 90
      vertex 91 2 90
      vertex 89 16.4 90
    endloop
  endfacet
  facet normal -0 0 1
    outer loop
      vertex 178 -16.4 90
      vertex 180 -18.4 90
      vertex 178 0 90
    endloop
  endfacet
  facet normal -0 0 1
    outer loop
      vertex 0 -16.4 90
      vertex 180 -18.4 90
      vertex 178 -16.4 90
    endloop
  endfacet
  facet normal 0 0 1
    outer loop
      vertex 0 -16.4 90
      vertex -2 -18.4 90
      vertex 180 -18.4 90
    endloop
  endfacet
  facet normal 0 0 1
    outer loop
      vertex -2 -18.4 90
      vertex 0 -16.4 90
      vertex -2 18.4 90
    endloop
  endfacet
  facet normal 0 1 -0
    outer loop
      vertex 180 2 0
      vertex 91 2 90
      vertex 180 2 90
    endloop
  endfacet
  facet normal 0 1 0
    outer loop
      vertex 91 2 90
      vertex 180 2 0
      vertex 91 2 0
    endloop
  endfacet
  facet normal 1 -0 0
    outer loop
      vertex 91 2 90
      vertex 91 18.4 0
      vertex 91 18.4 90
    endloop
  endfacet
  facet normal 1 0 0
    outer loop
      vertex 91 18.4 0
      vertex 91 2 90
      vertex 91 2 0
    endloop
  endfacet
  facet normal 0 1 -0
    outer loop
      vertex 91 18.4 0
      vertex -2 18.4 90
      vertex 91 18.4 90
    endloop
  endfacet
  facet normal 0 1 0
    outer loop
      vertex -2 18.4 90
      vertex 91 18.4 0
      vertex -2 18.4 0
    endloop
  endfacet
  facet normal -1 0 0
    outer loop
      vertex -2 -18.4 0
      vertex -2 18.4 90
      vertex -2 18.4 0
    endloop
  endfacet
  facet normal -1 -0 0
    outer loop
      vertex -2 18.4 90
      vertex -2 -18.4 0
      vertex -2 -18.4 90
    endloop
  endfacet
  facet normal 0 -1 0
    outer loop
      vertex -2 -18.4 0
      vertex 180 -18.4 90
      vertex -2 -18.4 90
    endloop
  endfacet
  facet normal 0 -1 -0
    outer loop
      vertex 180 -18.4 90
      vertex -2 -18.4 0
      vertex 180 -18.4 0
    endloop
  endfacet
  facet normal 1 -0 0
    outer loop
      vertex 180 -18.4 90
      vertex 180 2 0
      vertex 180 2 90
    endloop
  endfacet
  facet normal 1 0 0
    outer loop
      vertex 180 2 0
      vertex 180 -18.4 90
      vertex 180 -18.4 0
    endloop
  endfacet
  facet normal 0 0 1
    outer loop
      vertex 89 16.4 1
      vertex 0 16.4 1
      vertex 89 0 1
    endloop
  endfacet
  facet normal -0 0 1
    outer loop
      vertex 89 0 1
      vertex 178 -16.4 1
      vertex 178 0 1
    endloop
  endfacet
  facet normal 0 0 1
    outer loop
      vertex 0 -16.4 1
      vertex 89 0 1
      vertex 0 16.4 1
    endloop
  endfacet
  facet normal 0 0 1
    outer loop
      vertex 89 0 1
      vertex 0 -16.4 1
      vertex 178 -16.4 1
    endloop
  endfacet
  facet normal -1 0 0
    outer loop
      vertex 178 -16.4 1
      vertex 178 0 90
      vertex 178 0 1
    endloop
  endfacet
  facet normal -1 -0 0
    outer loop
      vertex 178 0 90
      vertex 178 -16.4 1
      vertex 178 -16.4 90
    endloop
  endfacet
  facet normal 0 -1 0
    outer loop
      vertex 89 0 1
      vertex 178 0 90
      vertex 89 0 90
    endloop
  endfacet
  facet normal 0 -1 -0
    outer loop
      vertex 178 0 90
      vertex 89 0 1
      vertex 178 0 1
    endloop
  endfacet
  facet normal -1 0 0
    outer loop
      vertex 89 0 1
      vertex 89 16.4 90
      vertex 89 16.4 1
    endloop
  endfacet
  facet normal -1 -0 0
    outer loop
      vertex 89 16.4 90
      vertex 89 0 1
      vertex 89 0 90
    endloop
  endfacet
  facet normal 0 -1 0
    outer loop
      vertex 0 16.4 1
      vertex 89 16.4 90
      vertex 0 16.4 90
    endloop
  endfacet
  facet normal 0 -1 -0
    outer loop
      vertex 89 16.4 90
      vertex 0 16.4 1
      vertex 89 16.4 1
    endloop
  endfacet
  facet normal 1 -0 0
    outer loop
      vertex 0 -16.4 90
      vertex 0 16.4 1
      vertex 0 16.4 90
    endloop
  endfacet
  facet normal 1 0 0
    outer loop
      vertex 0 16.4 1
      vertex 0 -16.4 90
      vertex 0 -16.4 1
    endloop
  endfacet
  facet normal 0 1 -0
    outer loop
      vertex 178 -16.4 1
      vertex 0 -16.4 90
      vertex 178 -16.4 90
    endloop
  endfacet
  facet normal 0 1 0
    outer loop
      vertex 0 -16.4 90
      vertex 178 -16.4 1
      vertex 0 -16.4 1
    endloop
  endfacet
endsolid OpenSCAD_Model
